<?xml version="1.0" standalone="no"?>
<!DOCTYPE svg PUBLIC "-//W3C//DTD SVG 20010904//EN"
 "http://www.w3.org/TR/2001/REC-SVG-20010904/DTD/svg10.dtd">
<svg version="1.0" xmlns="http://www.w3.org/2000/svg"
 width="542.000000pt" height="459.000000pt" viewBox="0 0 542.000000 459.000000"
 preserveAspectRatio="xMidYMid meet">
<metadata>
Created by potrace 1.16, written by Peter Selinger 2001-2019
</metadata>
<g transform="translate(0.000000,459.000000) scale(0.100000,-0.100000)"
fill="#000000" stroke="none">
<path d="M2415 4369 c-146 -14 -389 -81 -540 -148 -154 -69 -245 -120 -357
-196 -119 -82 -179 -134 -296 -252 -349 -356 -531 -732 -596 -1231 -7 -51 -10
-94 -8 -97 3 -3 67 -5 143 -5 l138 0 6 48 c4 26 13 85 21 132 68 391 297 786
607 1046 298 251 641 393 1024 425 940 79 1791 -597 1929 -1533 l18 -118 147
0 148 0 -5 33 c-2 17 -9 60 -14 95 -6 34 -14 90 -20 125 -18 114 -82 310 -159
484 -99 226 -290 483 -492 664 -113 102 -129 114 -264 202 -118 76 -116 75
-165 100 -25 13 -54 28 -65 34 -155 85 -450 173 -644 192 -116 12 -434 12
-556 0z"/>
<path d="M619 2145 c-3 -2 -1 -45 3 -96 23 -295 170 -681 366 -964 85 -122
271 -318 381 -402 25 -20 48 -39 51 -43 20 -28 362 -240 388 -240 5 0 40 -15
78 -34 38 -19 105 -44 148 -56 44 -11 86 -25 95 -29 9 -5 75 -22 146 -37 126
-27 140 -28 430 -28 291 0 304 1 429 28 70 15 142 33 160 41 17 7 75 27 129
44 54 18 112 41 130 51 18 11 38 20 45 20 28 0 253 137 378 230 95 71 298 272
367 365 4 5 25 33 46 60 21 28 64 93 95 145 32 52 62 102 67 110 5 8 14 26 20
40 6 14 24 53 40 87 36 75 99 242 99 263 1 8 7 33 15 55 16 44 39 161 59 298
9 66 10 90 1 93 -6 3 -72 3 -146 2 l-134 -3 -21 -130 c-25 -152 -44 -227 -83
-333 -184 -494 -557 -877 -1046 -1073 -112 -44 -322 -96 -451 -110 -147 -16
-420 -6 -541 20 -294 62 -514 161 -748 336 -351 263 -607 671 -684 1091 -11
60 -23 130 -26 157 l-6 47 -138 0 c-76 0 -140 -2 -142 -5z"/>
</g>
</svg>
